PathFileType	4	(X/Y/Z)	./resultDataOpenSim/trcMotMarkerGrf/sub10/qtm-05-02.trc
DataRate	CameraRate	NumFrames	NumMarkers	Units	OrigDataRate	OrigDataStartFrame	OrigNumFrames
250.000000	250.000000	6	24	m	250.000000	67	530
Frame#	Time	L.Toe.Tip			R.Toe.Tip			L.Ankle.Lat			R.Ankle.Lat			L.Ankle.Med			R.Ankle.Med			L.Heel			R.Heel			L.Knee.Lat			R.Knee.Lat			L.Knee.Med			R.Knee.Med			L.Thigh.Upper			R.Thigh.Upper			L.ASIS			R.ASIS			V.Sacral			L.Acromium			R.Acromium			C7			L.Elbow			R.Elbow			L.Wrist.Lat			R.Wrist.Lat
		X1	Y1	Z1	X2	Y2	Z2	X3	Y3	Z3	X4	Y4	Z4	X5	Y5	Z5	X6	Y6	Z6	X7	Y7	Z7	X8	Y8	Z8	X9	Y9	Z9	X10	Y10	Z10	X11	Y11	Z11	X12	Y12	Z12	X13	Y13	Z13	X14	Y14	Z14	X15	Y15	Z15	X16	Y16	Z16	X17	Y17	Z17	X18	Y18	Z18	X19	Y19	Z19	X20	Y20	Z20	X21	Y21	Z21	X22	Y22	Z22	X23	Y23	Z23	X24	Y24	Z24

67	0.264	-1.4573151	0.058754644	-0.15813879	-0.71153867	0.039954918	0.061048031	-1.4473166	0.19591004	-0.19585763	-0.85366481	0.053877319	0.095417697	-1.4237889	0.19239563	-0.11559305	-0.8355929	0.080331785	0.012580806	-1.4872607	0.24637357	-0.14972898	-0.90324328	0.028928036	0.047281828	-1.1361808	0.4165991	-0.19086212	-0.8362085	0.45142555	0.12395179	-1.1235909	0.36932435	-0.078781701	-0.8266461	0.46204621	-0.0027787228	-1.0329315	0.78033134	-0.20515716	-0.96310963	0.84968345	0.17569965	-0.94806615	0.8826388	-0.1491377	-0.90816731	0.92118954	0.085731367	-1.1243467	0.93476597	-0.0038325785	-0.91967211	1.3825769	-0.16139754	-0.98728126	1.378654	0.14722665	-1.0303446	1.4103071	-0.024518389	-1.0052431	1.0489504	-0.25576995	-1.1862073	1.0995844	0.14264724	-0.8023192	0.91143117	-0.20194719	-1.2276982	0.89276006	0.25739182
68	0.268	-1.4511949	0.06145314	-0.15790181	-0.7114824	0.039902464	0.061015929	-1.437407	0.19879553	-0.19530213	-0.85413015	0.053882643	0.095519483	-1.4142887	0.19491353	-0.11491746	-0.83536412	0.080300262	0.012533186	-1.4760825	0.25003732	-0.14914383	-0.90327069	0.028924612	0.047266812	-1.1247748	0.41585534	-0.19028238	-0.83411316	0.45134012	0.12437051	-1.1119467	0.36904671	-0.07796855	-0.82381519	0.46185491	-0.0023492241	-1.0264547	0.7808352	-0.20419361	-0.95847032	0.85006045	0.17635353	-0.94249562	0.88392211	-0.14844841	-0.90298849	0.92202974	0.086484234	-1.1189668	0.93556442	-0.0032753778	-0.91455311	1.3837108	-0.16050016	-0.98162235	1.3794157	0.1481386	-1.0252171	1.4113864	-0.023388695	-1.000879	1.0505377	-0.25495002	-1.179448	1.0994333	0.14421298	-0.79913079	0.91092894	-0.20172968	-1.2197176	0.8920547	0.25835694
69	0.272	-1.4440295	0.064381417	-0.15775447	-0.71141834	0.039849195	0.060976706	-1.4273458	0.2016485	-0.19465891	-0.85436349	0.053902458	0.095562111	-1.4045121	0.19740196	-0.11423342	-0.8351126	0.080263865	0.012454365	-1.4650964	0.25343706	-0.1484044	-0.90330139	0.028927983	0.047248263	-1.113302	0.41523819	-0.18965585	-0.83199475	0.45123062	0.12469096	-1.1003469	0.36902797	-0.077066477	-0.82132185	0.46162319	-0.0019496962	-1.0199941	0.78146623	-0.20326617	-0.95393727	0.85035717	0.17695087	-0.93698433	0.88531419	-0.14782076	-0.89777429	0.92284748	0.087241082	-1.1136014	0.9363592	-0.0026587998	-0.90949849	1.3848698	-0.15964814	-0.9759542	1.380211	0.14900191	-1.0201076	1.4125033	-0.022249241	-0.99655005	1.0521364	-0.25413056	-1.1726865	1.0992832	0.14583268	-0.796	0.91044969	-0.20157551	-1.2118087	0.89127174	0.25929665
70	0.276	-1.4357293	0.067451162	-0.1576988	-0.71134492	0.039797686	0.06092813	-1.4171453	0.20448396	-0.19391849	-0.85445561	0.053929893	0.095569539	-1.3943715	0.19987388	-0.11353122	-0.83483871	0.080219681	0.012351973	-1.4543115	0.25658931	-0.1474032	-0.90333141	0.028935896	0.047232458	-1.1016003	0.41475132	-0.18904621	-0.82985381	0.45111861	0.12493571	-1.0887686	0.36921558	-0.07611439	-0.81902809	0.46135568	-0.0016213079	-1.0135837	0.78216229	-0.20237165	-0.9494776	0.85061051	0.17752123	-0.93155826	0.88680197	-0.14726636	-0.89249435	0.9236469	0.088027992	-1.1082823	0.93712939	-0.0020078319	-0.9045295	1.3860586	-0.15884398	-0.97028652	1.3810408	0.14983022	-1.0150095	1.41365	-0.021106342	-0.99226423	1.0537506	-0.25330888	-1.1659296	1.0991408	0.14749193	-0.79291227	0.91001133	-0.20148066	-1.2040071	0.89040662	0.26021502
71	0.28	-1.4264435	0.070491834	-0.15764638	-0.71126251	0.039750085	0.060866971	-1.4068279	0.20729813	-0.19308825	-0.85449322	0.053956711	0.095561988	-1.383902	0.20233178	-0.11279073	-0.83455479	0.08016649	0.012241218	-1.4437189	0.25953736	-0.14617877	-0.90335815	0.028946316	0.047218077	-1.0894589	0.4143894	-0.18855054	-0.82767384	0.45097653	0.12514455	-1.0772005	0.36956456	-0.075123754	-0.81687321	0.46105852	-0.0013517925	-1.0072373	0.78290036	-0.20149493	-0.94506168	0.85085326	0.17809414	-0.92626379	0.88836115	-0.1468088	-0.88720006	0.92443628	0.088871522	-1.1030484	0.93786071	-0.0013723878	-0.89967019	1.3872756	-0.15809296	-0.96463112	1.3819013	0.15063219	-1.0099179	1.4148207	-0.019966165	-0.98803005	1.0553768	-0.2524947	-1.1591817	1.0990076	0.14917187	-0.7898436	0.90963078	-0.20142966	-1.196126	0.88951172	0.26114542
72	0.284	-1.4163556	0.073371032	-0.15751069	-0.7111714	0.039707644	0.06079591	-1.3964306	0.21006404	-0.19219134	-0.85450817	0.053975277	0.095547025	-1.3733186	0.2047563	-0.11197144	-0.83427804	0.0801058	0.012134876	-1.4333001	0.26230681	-0.14484703	-0.90337973	0.028960467	0.047198535	-1.0768505	0.41414731	-0.18821134	-0.82546994	0.4507822	0.1253481	-1.065654	0.37004052	-0.07408172	-0.81484708	0.46073172	-0.0011211945	-1.0009513	0.78368774	-0.20062268	-0.94068742	0.85110164	0.1786753	-0.92111431	0.88997591	-0.14645571	-0.88195067	0.92522973	0.089785795	-1.097933	0.93855552	-0.00081341244	-0.89490697	1.3885172	-0.1573835	-0.95899132	1.3827913	0.15140947	-1.0048356	1.4160078	-0.018830837	-0.98384942	1.0570071	-0.25170021	-1.152441	1.0988813	0.15086447	-0.78679113	0.90931905	-0.2014072	-1.1879087	0.88866098	0.2621303
